<svg id="Capa_1" data-name="Capa 1" xmlns="http://www.w3.org/2000/svg" width="667.97" height="133.84" viewBox="0 0 667.97 133.84"><defs><style>.cls-1{fill:#e8e8e8;}</style></defs><path class="cls-1" d="M52.59,75a163.8,163.8,0,0,0,1.63-18,8.53,8.53,0,0,0-.81-4.1q-.82-1.45-4.75-1.46a9,9,0,0,0-6.76,2.65C40.54,55.5,39.25,60,38.06,67.47L30,133H0L12.57,31h30l-.51,4.1a3.86,3.86,0,0,1-.52,1.2l-6.84,7.61,1.88.69.86-.86a42.49,42.49,0,0,1,3.67-4.19,28.91,28.91,0,0,1,21.13-9q1.45,0,2.91.09,14.35,1.36,17,12.74l1.46-1.46Q95.36,30.53,108,30.53c.86,0,1.68,0,2.48.09Q126.06,32.08,127.38,42a130.86,130.86,0,0,1,1.33,16.76,114.48,114.48,0,0,1-.94,14.37L120.41,133H90.65l7.1-58a181,181,0,0,0,1.54-18.13,8.94,8.94,0,0,0-.73-3.93c-.48-1-2-1.46-4.66-1.46a9.19,9.19,0,0,0-6.76,2.65Q84.92,56.36,83,70.21a24,24,0,0,1-.34,2.91L75.26,133H45.5Z"/><path class="cls-1" d="M163.94,133.84q-21.21,0-28.48-10.31t-7.27-27a118.53,118.53,0,0,1,1-14.88q3.5-28.05,14.92-39.94t32.54-11.88q21.21,0,28.48,10.13t7.27,26.73a120.36,120.36,0,0,1-1,15q-3.42,28.14-14.84,40.15T163.94,133.84Zm2.65-21.13a13.51,13.51,0,0,0,8.51-2.48q3.21-2.48,6.46-28.47a200.15,200.15,0,0,0,1.71-21.38q0-6-1.89-7.74c-1.25-1.17-3.65-1.76-7.18-1.76a13.92,13.92,0,0,0-8.55,2.44q-3.26,2.45-6.42,28.44a189.68,189.68,0,0,0-1.79,21.46c0,3.94.64,6.5,1.92,7.7S163.05,112.71,166.59,112.71Z"/><path class="cls-1" d="M246.21,133.5q-15.83,0-20.78-5t-5-14.66a57.51,57.51,0,0,1,.42-6.67l6.5-52.6h-10.6L219.7,31h2.22a13.35,13.35,0,0,0,10.22-4.79q4.32-4.79,5.43-13.77L238,8.89h30.1l-.43,3.51q-.94,7.53-4.19,11.85t-9.83,4.48L253.39,31h28l-2.9,23.6H257.5l-6.16,50a11.74,11.74,0,0,0-.09,1.36,4.45,4.45,0,0,0,2,4,10.1,10.1,0,0,0,5.56,1.29,101.11,101.11,0,0,0,12.91-1.12L269,132.21A224.64,224.64,0,0,1,246.21,133.5Z"/><path class="cls-1" d="M284.43,31h30.1L302.05,133H272ZM318.38,0l-2.56,21H285.63L288.28,0Z"/><path class="cls-1" d="M346.26,133.84q-21.21,0-28.48-10.31t-7.27-27a118.53,118.53,0,0,1,1-14.88Q315,53.62,326.46,41.73T359,29.85q21.21,0,28.48,10.13t7.27,26.73a120.36,120.36,0,0,1-1,15q-3.42,28.14-14.83,40.15T346.26,133.84Zm2.65-21.13a13.49,13.49,0,0,0,8.51-2.48q3.21-2.48,6.46-28.47a197.51,197.51,0,0,0,1.71-21.38q0-6-1.88-7.74c-1.26-1.17-3.65-1.76-7.19-1.76A13.94,13.94,0,0,0,348,53.32q-3.25,2.45-6.41,28.44a187.86,187.86,0,0,0-1.8,21.46c0,3.94.64,6.5,1.92,7.7S345.37,112.71,348.91,112.71Z"/><path class="cls-1" d="M445.12,78.76A197.87,197.87,0,0,0,446.91,58a9.31,9.31,0,0,0-1-4.92q-1-1.58-5.56-1.58a11.59,11.59,0,0,0-8,3c-1.25,1.08-2.34,3.42-3.25,7L420.23,133h-30L402.79,31h30l-.51,4.1a4.1,4.1,0,0,1-.51,1.2l-6.84,7.61,1.71.6c.85-1,1.76-2,2.73-3q11.12-11.8,24-11.8a27.63,27.63,0,0,1,5.22.51q14.19,2.91,15.82,12.87a112,112,0,0,1,1.63,17.74,149.62,149.62,0,0,1-1.29,18.73L468.21,133H438.45Z"/><path class="cls-1" d="M498.13,108.9q-10.11,0-13.24-7.73a46.74,46.74,0,0,1-3.13-17.7,125.4,125.4,0,0,1,1-14.78q2.87-23.17,9-31.8t16.27-8.62q10.12,0,13,6.89A39.84,39.84,0,0,1,524,50.71a81.66,81.66,0,0,1-.6,9.45h-7.66a95.41,95.41,0,0,0,.73-11A37.85,37.85,0,0,0,515.08,39q-1.37-4.89-7.76-4.89t-10.18,6.79q-3.93,6.78-6.53,27.83a138.1,138.1,0,0,0-1.2,16.51A46,46,0,0,0,491,97.31c1.07,3.91,3.68,5.86,7.86,5.86s7.49-2.49,9.82-7.49a63.82,63.82,0,0,0,5-18.41h7.65a58.65,58.65,0,0,1-7.42,22.24Q508.26,108.9,498.13,108.9Z"/><path class="cls-1" d="M538.94,3.84h7.73L533.82,108.37h-7.73Z"/><path class="cls-1" d="M553.06,28.94h7.79l-9.79,79.43h-7.72ZM563.18,9.7,562,19h-7.72l1.13-9.32Z"/><path class="cls-1" d="M596.4,58.63a107.39,107.39,0,0,0,.86-12.18A28.2,28.2,0,0,0,596,37.86Q594.8,34,589.34,34q-5.19,0-9.32,4.53A20.07,20.07,0,0,0,575.43,48L568,108.37h-7.73L570,28.94h7.73l-.6,5a2.7,2.7,0,0,1-.07.5,5,5,0,0,1-.13.5l-1.73,3.26.26.73a35.23,35.23,0,0,1,3.73-4.66q5.73-6.12,12.92-6.12a14.41,14.41,0,0,1,1.46.07q8.52.66,9.89,6.75a54,54,0,0,1,1.36,11.82A102.38,102.38,0,0,1,604,59.17l-6.06,49.2h-7.66Z"/><path class="cls-1" d="M616,28.94h7.79L614,108.37h-7.72ZM626.16,9.7,625,19H617.3l1.13-9.32Z"/><path class="cls-1" d="M642.13,108.9q-10.11,0-13.24-7.73a46.74,46.74,0,0,1-3.13-17.7,125.4,125.4,0,0,1,1-14.78q2.87-23.17,9-31.8t16.27-8.62q10.13,0,13,6.89A39.84,39.84,0,0,1,668,50.71a81.66,81.66,0,0,1-.6,9.45h-7.66a95.41,95.41,0,0,0,.73-11A37.85,37.85,0,0,0,659.08,39q-1.37-4.89-7.76-4.89t-10.18,6.79q-3.93,6.78-6.53,27.83a138.1,138.1,0,0,0-1.2,16.51A46,46,0,0,0,635,97.31c1.07,3.91,3.68,5.86,7.86,5.86s7.49-2.49,9.82-7.49a63.82,63.82,0,0,0,5-18.41h7.65a58.65,58.65,0,0,1-7.42,22.24Q652.26,108.9,642.13,108.9Z"/></svg>