<svg id="Capa_1" data-name="Capa 1" xmlns="http://www.w3.org/2000/svg" xmlns:xlink="http://www.w3.org/1999/xlink" width="42.16" height="63.85" viewBox="0 0 42.16 63.85"><defs><style>.cls-1{fill:none;}.cls-2{fill:url(#Nueva_muestra_de_degradado_1);}.cls-3{fill:url(#Nueva_muestra_de_degradado_1-2);}.cls-4{clip-path:url(#clip-path);}</style><linearGradient id="Nueva_muestra_de_degradado_1" y1="29.23" x2="42.16" y2="29.23" gradientUnits="userSpaceOnUse"><stop offset="0.17"/><stop offset="0.63" stop-color="#0c0d0d"/><stop offset="1" stop-color="#191a1a"/></linearGradient><linearGradient id="Nueva_muestra_de_degradado_1-2" x1="7.94" y1="59.72" x2="34.22" y2="59.72" xlink:href="#Nueva_muestra_de_degradado_1"/><clipPath id="clip-path"><rect class="cls-1" x="-909.57" y="-667.76" width="832.92" height="630.75"/></clipPath></defs><path class="cls-2" d="M36,6.17A21.08,21.08,0,0,0,3.67,33L21.08,58.47,38.49,33A21.08,21.08,0,0,0,36,6.17ZM21.08,34.55A13.47,13.47,0,1,1,34.55,21.08,13.47,13.47,0,0,1,21.08,34.55Z"/><path class="cls-3" d="M30,56.44a29.67,29.67,0,0,0-5.18-.84l-1.2,1.75a30.07,30.07,0,0,1,5.77.82c2.42.63,3,1.33,3,1.48h0c0,.14-.63.84-3,1.47a34.16,34.16,0,0,1-8.27.9,34.16,34.16,0,0,1-8.27-.9c-2.43-.63-3-1.33-3-1.47s.61-.85,3-1.48a30.07,30.07,0,0,1,5.77-.82l-1.2-1.75a29.67,29.67,0,0,0-5.18.84c-2.83.76-4.26,1.84-4.26,3.21s1.43,2.44,4.26,3.2a35.75,35.75,0,0,0,8.88,1,35.75,35.75,0,0,0,8.88-1c2.83-.76,4.26-1.83,4.26-3.2S32.79,57.2,30,56.44Z"/><g class="cls-4"><image width="1280" height="960" transform="translate(-1011.3 -723.8) scale(0.8)" xlink:href="web%20v3_Folder/Links/WhatsApp%20Image%202024-11-08%20at%2008.09.28.jpeg"/></g></svg>